<?xml version="1.0" encoding="UTF-8" standalone="no"?>
<svg
   xmlns:dc="http://purl.org/dc/elements/1.1/"
   xmlns:cc="http://creativecommons.org/ns#"
   xmlns:rdf="http://www.w3.org/1999/02/22-rdf-syntax-ns#"
   xmlns:svg="http://www.w3.org/2000/svg"
   xmlns="http://www.w3.org/2000/svg"
   xmlns:sodipodi="http://sodipodi.sourceforge.net/DTD/sodipodi-0.dtd"
   xmlns:inkscape="http://www.inkscape.org/namespaces/inkscape"
   version="1.1"
   x="0"
   y="0"
   width="2222"
   height="2000"
   viewBox="0 0 2222 2000"
   id="svg8514"
   inkscape:version="0.91 r13725"
   sodipodi:docname="rockscissorspaper.svg">
  <metadata
     id="metadata8575">
    <rdf:RDF>
      <cc:Work
         rdf:about="">
        <dc:format>image/svg+xml</dc:format>
        <dc:type
           rdf:resource="http://purl.org/dc/dcmitype/StillImage" />
        <dc:title></dc:title>
        <dc:description>remix by j4p4n</dc:description>
        <cc:license
           rdf:resource="http://creativecommons.org/publicdomain/zero/1.0/" />
      </cc:Work>
      <cc:License
         rdf:about="http://creativecommons.org/publicdomain/zero/1.0/">
        <cc:permits
           rdf:resource="http://creativecommons.org/ns#Reproduction" />
        <cc:permits
           rdf:resource="http://creativecommons.org/ns#Distribution" />
        <cc:permits
           rdf:resource="http://creativecommons.org/ns#DerivativeWorks" />
      </cc:License>
    </rdf:RDF>
  </metadata>
  <defs
     id="defs8573" />
  <sodipodi:namedview
     pagecolor="#ffffff"
     bordercolor="#666666"
     borderopacity="1"
     objecttolerance="10"
     gridtolerance="10"
     guidetolerance="10"
     inkscape:pageopacity="0"
     inkscape:pageshadow="2"
     inkscape:window-width="1916"
     inkscape:window-height="1035"
     id="namedview8571"
     showgrid="false"
     showguides="true"
     inkscape:guide-bbox="true"
     fit-margin-top="0"
     fit-margin-left="0"
     fit-margin-right="0"
     fit-margin-bottom="0"
     inkscape:zoom="0.16"
     inkscape:cx="1090.8759"
     inkscape:cy="25.218096"
     inkscape:window-x="4"
     inkscape:window-y="1"
     inkscape:window-maximized="1"
     inkscape:current-layer="Layer_1" />
  <g
     id="Layer_1"
     transform="translate(1066.2609,211.37135)">
    <g
       id="g9126"
       transform="translate(93.75,-118.75)">
      <g
         id="g8531">
        <path
           id="path8533"
           d="m 734.198,702.65 -181.652,0 5.858,-68.364 c 0,0 -72.942,-90.241 -62.908,-158.367 13.207,-89.668 12.746,-137.635 12.746,-137.635 0,0 -10.698,-180.96 -11.694,-234.265 -1.213,-64.974 71.382,-74.612 78.656,-10.595 9.64,84.847 23.755,245.798 23.755,245.798 12.621,-31.909 56.473,-205.471 66.309,-245.798 16.993,-69.674 87.576,-48.995 81.072,1.895 -9.88,77.286 -62.929,222.84 -62.929,222.84 0,0 20.917,-23.886 44.928,-15.626 36.764,12.647 27.345,52.736 27.345,52.736 0,0 38.712,-22.05 56.291,28.734 17.58,50.783 7.084,75.99 -2.263,114.419 -17.58,72.269 -73.56,141.724 -73.56,141.724 l -1.954,62.504 z"
           inkscape:connector-curvature="0"
           style="fill:#f7cfbe" />
        <path
           id="path8535"
           d="m 734.198,702.65 -181.652,0 5.858,-68.364 c 0,0 -72.942,-90.241 -62.908,-158.367 13.207,-89.668 12.746,-137.635 12.746,-137.635 0,0 -10.698,-180.96 -11.694,-234.265 -1.213,-64.974 71.382,-74.612 78.656,-10.595 9.64,84.847 23.755,245.798 23.755,245.798 12.621,-31.909 56.473,-205.471 66.309,-245.798 16.993,-69.674 87.576,-48.995 81.072,1.895 -9.88,77.286 -62.929,222.84 -62.929,222.84 0,0 20.917,-23.886 44.928,-15.626 36.764,12.647 27.345,52.736 27.345,52.736 0,0 38.712,-22.05 56.291,28.734 17.58,50.783 7.084,75.99 -2.263,114.419 -17.58,72.269 -73.56,141.724 -73.56,141.724 l -1.954,62.504 z"
           inkscape:connector-curvature="0"
           style="fill-opacity:0;stroke:#e16049;stroke-width:18.69300079;stroke-linecap:round;stroke-linejoin:round" />
      </g>
      <path
         id="path8537"
         d="m 683.411,318.159 c 0,0 -64.457,126.356 -17.577,143.933 46.878,17.578 46.878,-17.577 56.643,-35.159 9.768,-17.578 33.207,-71.664 33.207,-71.664 0,0 -41.792,86.033 -43.401,105.201 -2.383,28.4 32.082,38.591 45.753,26.872 13.674,-11.718 29.299,-50.782 29.299,-50.782 l 13.4,-9.601"
         inkscape:connector-curvature="0"
         style="fill-opacity:0;stroke:#e16049;stroke-width:18.69300079;stroke-linecap:round;stroke-linejoin:round" />
      <g
         id="g8539">
        <path
           id="path8541"
           d="m 566.864,529.447 c 0,0 15.307,-29.315 38.233,-33.137 76.467,-12.745 84.021,-101.216 5.096,-89.207 -117.246,17.842 -112.148,73.915 -112.148,73.915"
           inkscape:connector-curvature="0"
           style="fill:#f7cfbe" />
        <path
           id="path8543"
           d="m 566.864,529.447 c 0,0 15.307,-29.315 38.233,-33.137 76.467,-12.745 84.021,-101.216 5.096,-89.207 -117.246,17.842 -112.148,73.915 -112.148,73.915"
           inkscape:connector-curvature="0"
           style="fill-opacity:0;stroke:#e16049;stroke-width:18.69300079;stroke-linecap:round;stroke-linejoin:round" />
      </g>
    </g>
    <g
       id="g9117"
       transform="matrix(0,1,-1,0,-154.04331,-878.76455)">
      <g
         id="g8545">
        <path
           id="path8547"
           d="m 1246.9,702.65 -181.654,0 5.861,-68.364 c 0,0 -101.02,-80.62 -91.716,-148.849 4.236,-31.069 26.06,-46.027 29.564,-51.281 5.647,-8.473 1.513,-51.455 8.565,-95.279 8.728,-54.233 41.305,-64.866 72.023,-56.49 31.068,8.475 26.489,34.242 26.489,34.242 0,0 19.533,-29.3 50.783,-23.438 26.947,5.05 29.298,35.158 29.298,35.158 0,0 20.916,-23.887 44.929,-15.627 36.762,12.649 27.344,52.737 27.344,52.737 0,0 48.789,-40.439 66.366,10.344 17.583,50.785 -7.822,83.323 -12.338,122.614 -12.212,106.193 -73.56,141.727 -73.56,141.727 l -1.954,62.506 z"
           inkscape:connector-curvature="0"
           style="fill:#f7cfbe" />
        <path
           id="path8549"
           d="m 1246.9,702.65 -181.654,0 5.861,-68.364 c 0,0 -101.02,-80.62 -91.716,-148.849 4.236,-31.069 26.06,-46.027 29.564,-51.281 5.647,-8.473 1.513,-51.455 8.565,-95.279 8.728,-54.233 41.305,-64.866 72.023,-56.49 31.068,8.475 26.489,34.242 26.489,34.242 0,0 19.533,-29.3 50.783,-23.438 26.947,5.05 29.298,35.158 29.298,35.158 0,0 20.916,-23.887 44.929,-15.627 36.762,12.649 27.344,52.737 27.344,52.737 0,0 48.789,-40.439 66.366,10.344 17.583,50.785 -7.822,83.323 -12.338,122.614 -12.212,106.193 -73.56,141.727 -73.56,141.727 l -1.954,62.506 z"
           inkscape:connector-curvature="0"
           style="fill-opacity:0;stroke:#e16049;stroke-width:18.69300079;stroke-linecap:round;stroke-linejoin:round" />
      </g>
      <path
         id="path8551"
         d="m 1114.255,323.785 c 0,0 -45.315,123.26 -2.149,131.21 48.619,8.951 65.574,-15.746 67.048,-34.927 1.947,-25.284 18.827,-94.845 18.827,-94.845 0,0 -45.511,144.12 2.167,150.622 49.608,6.766 47.334,-35.272 54.181,-54.179 6.849,-18.908 16.848,-68.906 16.848,-68.906 0,0 -21.347,81.933 -26.126,100.566 -10.227,39.857 64.512,83.341 77.193,-22.991 l 8.67,-3.252"
         inkscape:connector-curvature="0"
         style="fill-opacity:0;stroke:#e16049;stroke-width:18.69300079;stroke-linecap:round;stroke-linejoin:round" />
      <g
         id="g8553">
        <path
           id="path8555"
           d="m 1079.565,529.443 c 0,0 15.14,-30.508 38.235,-33.133 113.076,-12.865 85.034,-106.834 6.111,-94.824 -117.248,17.843 -137.459,69.829 -137.459,69.829"
           inkscape:connector-curvature="0"
           style="fill:#f7cfbe" />
        <path
           id="path8557"
           d="m 1079.565,529.443 c 0,0 15.14,-30.508 38.235,-33.133 113.076,-12.865 85.034,-106.834 6.111,-94.824 -117.248,17.843 -137.459,69.829 -137.459,69.829"
           inkscape:connector-curvature="0"
           style="fill-opacity:0;stroke:#e16049;stroke-width:18.69300079;stroke-linecap:round;stroke-linejoin:round" />
      </g>
    </g>
    <g
       id="g9135"
       transform="translate(-1664.4616,767.38869)">
      <g
         id="g8559">
        <path
           id="path8561"
           d="m 1841.498,702.65 -181.655,0 5.86,-68.364 c 0,0 -84.845,-50.396 -74.81,-118.524 13.204,-89.671 24.646,-177.483 24.646,-177.483 0,0 9.662,-185.32 12.466,-238.56 3.907,-74.222 70.473,-74.034 70.473,-9.605 0,89.849 0.79,112.809 -0.584,130.709 -1.956,25.391 3.141,87.896 3.141,87.896 0,0 14.436,-233.846 14.436,-265.642 0,-31.251 66.408,-58.598 70.316,5.859 5.948,98.147 -6.621,263.688 -6.621,263.688 0,0 13.797,-198.725 22.246,-222.669 11.721,-33.206 57.605,-29.418 56.646,13.672 -1.951,87.748 -10.527,226.578 -10.527,226.578 0,0 8.554,-85.237 14.182,-138.682 3.904,-37.111 52.734,-62.504 54.689,13.675 1.08,42.161 2.586,96.144 -3.906,148.445 -8.172,65.807 8.573,118.913 0.685,154.307 -16.187,72.598 -69.734,132.194 -69.734,132.194 l -1.949,62.506 z"
           inkscape:connector-curvature="0"
           style="fill:#f7cfbe" />
        <path
           id="path8563"
           d="m 1841.498,702.65 -181.655,0 5.86,-68.364 c 0,0 -84.845,-50.396 -74.81,-118.524 13.204,-89.671 24.646,-177.483 24.646,-177.483 0,0 9.662,-185.32 12.466,-238.56 3.907,-74.222 70.473,-74.034 70.473,-9.605 0,89.849 0.79,112.809 -0.584,130.709 -1.956,25.391 3.141,87.896 3.141,87.896 0,0 14.436,-233.846 14.436,-265.642 0,-31.251 66.408,-58.598 70.316,5.859 5.948,98.147 -6.621,263.688 -6.621,263.688 0,0 13.797,-198.725 22.246,-222.669 11.721,-33.206 57.605,-29.418 56.646,13.672 -1.951,87.748 -10.527,226.578 -10.527,226.578 0,0 8.554,-85.237 14.182,-138.682 3.904,-37.111 52.734,-62.504 54.689,13.675 1.08,42.161 2.586,96.144 -3.906,148.445 -8.172,65.807 8.573,118.913 0.685,154.307 -16.187,72.598 -69.734,132.194 -69.734,132.194 l -1.949,62.506 z"
           inkscape:connector-curvature="0"
           style="fill-opacity:0;stroke:#e16049;stroke-width:18.69300079;stroke-linecap:round;stroke-linejoin:round" />
      </g>
      <g
         id="g8565">
        <path
           id="path8567"
           d="m 1598.704,566.546 c 0,0 -37.108,-80.079 -48.828,-101.567 -11.721,-21.488 -41.369,-95.561 -48.835,-113.29 -15.626,-37.111 37.114,-54.69 60.555,-31.251 23.437,23.438 58.595,89.85 58.595,89.85 0,0 40.307,15.389 52.736,19.533 23.442,7.812 39.067,41.017 39.067,41.017"
           inkscape:connector-curvature="0"
           style="fill:#f7cfbe" />
        <path
           id="path8569"
           d="m 1598.704,566.546 c 0,0 -37.108,-80.079 -48.828,-101.567 -11.721,-21.488 -41.369,-95.561 -48.835,-113.29 -15.626,-37.111 37.114,-54.69 60.555,-31.251 23.437,23.438 58.595,89.85 58.595,89.85 0,0 40.307,15.389 52.736,19.533 23.442,7.812 39.067,41.017 39.067,41.017"
           inkscape:connector-curvature="0"
           style="fill-opacity:0;stroke:#e16049;stroke-width:18.69300079;stroke-linecap:round;stroke-linejoin:round" />
      </g>
    </g>
    <path
       style="fill:none;fill-rule:evenodd;stroke:#e16049;stroke-width:42;stroke-linecap:round;stroke-linejoin:bevel;stroke-miterlimit:4;stroke-dasharray:none;stroke-opacity:0.95588235"
       d="M -363.38504,255.67336 501.65511,248.64051 65.618613,705.77555 Z"
       id="path9143"
       inkscape:connector-curvature="0"
       sodipodi:nodetypes="cccc" />
    <rect
       style="opacity:1;fill:#f7e6be;fill-opacity:1;fill-rule:evenodd;stroke:#e16049;stroke-width:20.60581017;stroke-linecap:round;stroke-linejoin:bevel;stroke-miterlimit:4;stroke-dasharray:none;stroke-opacity:0.95588235"
       id="rect9149"
       width="642.38324"
       height="146.21994"
       x="-230.95804"
       y="1513.3558"
       ry="56.238438" />
    <g
       transform="matrix(1.1179902,0,0,0.89446223,93.75,-118.75)"
       style="font-style:normal;font-weight:normal;font-size:113.58812714px;line-height:125%;font-family:sans-serif;letter-spacing:0px;word-spacing:0px;fill:#e16049;fill-opacity:0.95686275;stroke:none;stroke-width:1px;stroke-linecap:butt;stroke-linejoin:miter;stroke-opacity:1"
       id="text9151">
      <path
         d="m -143.12317,1890.4079 q 0,5.5463 -1.94121,10.8708 -1.9412,5.269 -5.54629,8.874 -4.93621,4.8808 -11.03713,7.3766 -6.04546,2.4959 -15.08592,2.4959 l -13.25565,0 0,26.8995 -21.29777,0 0,-82.5844 35.05258,0 q 7.87574,0 13.25565,1.3866 5.43537,1.3311 9.59509,4.0488 4.99167,3.2723 7.59842,8.3749 2.66223,5.1026 2.66223,12.2573 z m -22.0188,0.4992 q 0,-3.4942 -1.88574,-5.99 -1.88574,-2.5513 -4.38157,-3.5496 -3.32778,-1.3311 -6.48917,-1.4421 -3.16138,-0.1664 -8.43036,-0.1664 l -3.66056,0 0,24.7365 6.10093,0 q 5.43537,0 8.92953,-0.6655 3.54963,-0.6656 5.93454,-2.6623 2.05213,-1.7748 2.93953,-4.2151 0.94287,-2.4959 0.94287,-6.0455 z"
         style="font-style:normal;font-variant:normal;font-weight:bold;font-stretch:normal;font-family:sans-serif;-inkscape-font-specification:'sans-serif Bold';fill:#e16049;fill-opacity:0.95686275"
         id="path9196"
         inkscape:connector-curvature="0" />
      <path
         d="m -51.775692,1946.9247 -22.018793,0 -5.712684,-16.6944 -30.615551,0 -5.71268,16.6944 -21.46417,0 30.50463,-82.5844 24.514624,0 30.504624,82.5844 z m -32.889531,-31.8358 -10.149721,-29.6172 -10.149716,29.6172 20.299437,0 z"
         style="font-style:normal;font-variant:normal;font-weight:bold;font-stretch:normal;font-family:sans-serif;-inkscape-font-specification:'sans-serif Bold';fill:#e16049;fill-opacity:0.95686275"
         id="path9198"
         inkscape:connector-curvature="0" />
      <path
         d="m 28.368281,1890.4079 q 0,5.5463 -1.941203,10.8708 -1.941203,5.269 -5.546295,8.874 -4.936203,4.8808 -11.037128,7.3766 -6.0454618,2.4959 -15.0859231,2.4959 l -13.2556459,0 0,26.8995 -21.297774,0 0,-82.5844 35.0525864,0 q 7.8757393,0 13.2556457,1.3866 5.4353699,1.3311 9.5950909,4.0488 4.991666,3.2723 7.598424,8.3749 2.662222,5.1026 2.662222,12.2573 z m -22.018792,0.4992 q 0,-3.4942 -1.8857404,-5.99 -1.8857404,-2.5513 -4.38157327,-3.5496 -3.32777713,-1.3311 -6.48916543,-1.4421 -3.1613883,-0.1664 -8.4303689,-0.1664 l -3.660555,0 0,24.7365 6.100925,0 q 5.4353693,0 8.9295354,-0.6655 3.54962893,-0.6656 5.9345359,-2.6623 2.0521292,-1.7748 2.9395365,-4.2151 0.9428702,-2.4959 0.9428702,-6.0455 z"
         style="font-style:normal;font-variant:normal;font-weight:bold;font-stretch:normal;font-family:sans-serif;-inkscape-font-specification:'sans-serif Bold';fill:#e16049;fill-opacity:0.95686275"
         id="path9200"
         inkscape:connector-curvature="0" />
      <path
         d="m 103.13234,1946.9247 -59.7336,0 0,-82.5844 59.7336,0 0,15.9734 -38.546752,0 0,14.254 35.773602,0 0,15.9733 -35.773602,0 0,20.4104 38.546752,0 0,15.9733 z"
         style="font-style:normal;font-variant:normal;font-weight:bold;font-stretch:normal;font-family:sans-serif;-inkscape-font-specification:'sans-serif Bold';fill:#e16049;fill-opacity:0.95686275"
         id="path9202"
         inkscape:connector-curvature="0" />
      <path
         d="m 167.35844,1889.6315 q 0,-3.106 -1.27565,-5.3245 -1.27565,-2.2185 -4.38157,-3.4942 -2.16306,-0.8874 -5.04713,-1.0538 -2.88408,-0.2218 -6.71102,-0.2218 l -7.70935,0 0,22.2406 6.54463,0 q 5.10259,0 8.54129,-0.4991 3.43871,-0.4992 5.76815,-2.274 2.21852,-1.7194 3.21685,-3.7715 1.0538,-2.1076 1.0538,-5.6017 z m 33.22231,57.2932 -26.01213,0 -22.51796,-30.2828 -9.81694,0 0,30.2828 -21.18685,0 0,-82.5844 35.71814,0 q 7.32111,0 12.59009,0.832 5.26898,0.8319 9.87241,3.6051 4.65889,2.7731 7.37657,7.2102 2.77315,4.3815 2.77315,11.0371 0,9.1514 -4.27065,14.9195 -4.21518,5.7682 -12.09092,9.5951 l 27.56509,35.3854 z"
         style="font-style:normal;font-variant:normal;font-weight:bold;font-stretch:normal;font-family:sans-serif;-inkscape-font-specification:'sans-serif Bold';fill:#e16049;fill-opacity:0.95686275"
         id="path9204"
         inkscape:connector-curvature="0" />
    </g>
    <rect
       ry="56.238438"
       y="632.10583"
       x="444.04196"
       height="146.21994"
       width="642.38324"
       id="rect9155"
       style="opacity:1;fill:#f7e6be;fill-opacity:1;fill-rule:evenodd;stroke:#e16049;stroke-width:20.60581017;stroke-linecap:round;stroke-linejoin:bevel;stroke-miterlimit:4;stroke-dasharray:none;stroke-opacity:0.95588235" />
    <g
       transform="matrix(0.94956293,0,0,1.0531161,93.75,-118.75)"
       style="font-style:normal;font-weight:normal;font-size:96.47586823px;line-height:125%;font-family:sans-serif;letter-spacing:0px;word-spacing:0px;fill:#e16049;fill-opacity:0.95686275;stroke:none;stroke-width:1px;stroke-linecap:butt;stroke-linejoin:miter;stroke-opacity:1"
       id="text9157">
      <path
         d="m 495.70546,794.76833 q 0,10.36362 -8.80908,16.86444 -8.76197,6.4537 -23.83632,6.4537 -8.71486,0 -15.21568,-1.50743 -6.45371,-1.55454 -12.10659,-3.90991 l 0,-16.81733 1.97851,0 q 5.60577,4.4752 12.53056,6.87768 6.97189,2.40247 13.37849,2.40247 1.64875,0 4.33387,-0.28264 2.68512,-0.28265 4.38099,-0.94215 2.07272,-0.84793 3.39173,-2.11983 1.36611,-1.2719 1.36611,-3.76859 0,-2.30826 -1.97851,-3.95702 -1.9314,-1.69586 -5.69999,-2.5909 -3.95702,-0.94215 -8.38511,-1.74298 -4.38098,-0.84793 -8.24379,-2.11983 -8.85618,-2.87355 -12.76609,-7.77271 -3.8628,-4.94627 -3.8628,-12.24791 0,-9.79833 8.76197,-15.9694 8.80907,-6.21817 22.61153,-6.21817 6.92478,0 13.66113,1.36611 6.78346,1.31901 11.72973,3.34463 l 0,16.15782 -1.9314,0 q -4.23966,-3.39173 -10.41073,-5.65288 -6.12395,-2.30826 -12.53055,-2.30826 -2.26116,0 -4.52231,0.32975 -2.21404,0.28264 -4.28677,1.13058 -1.83719,0.70661 -3.15619,2.16693 -1.31901,1.41322 -1.31901,3.25041 0,2.77934 2.11983,4.28677 2.11983,1.46033 8.00825,2.68512 3.86281,0.80083 7.39586,1.55454 3.58016,0.75372 7.6785,2.07273 8.05536,2.63801 11.87105,7.20742 3.86281,4.52231 3.86281,11.77684 z"
         style="font-style:normal;font-variant:normal;font-weight:bold;font-stretch:normal;font-family:sans-serif;-inkscape-font-specification:'sans-serif Bold';fill:#e16049;fill-opacity:0.95686275"
         id="path9179"
         inkscape:connector-curvature="0" />
      <path
         d="m 539.65662,818.18069 q -7.81982,0 -14.46196,-2.30826 -6.59503,-2.30826 -11.35287,-6.87768 -4.75785,-4.56941 -7.39586,-11.39998 -2.5909,-6.83056 -2.5909,-15.78096 0,-8.338 2.49669,-15.12146 2.49669,-6.78346 7.25453,-11.63552 4.56941,-4.66363 11.30576,-7.20743 6.78346,-2.54379 14.79171,-2.54379 4.4281,0 7.96115,0.51818 3.58016,0.47107 6.59503,1.2719 3.15619,0.89504 5.69999,2.02561 2.5909,1.08347 4.5223,2.02562 l 0,17.00575 -2.07272,0 q -1.319,-1.13057 -3.34462,-2.68511 -1.97851,-1.55455 -4.52231,-3.06198 -2.5909,-1.50744 -5.60577,-2.5438 -3.01487,-1.03636 -6.45371,-1.03636 -3.8157,0 -7.25453,1.22479 -3.43884,1.17768 -6.3595,3.95702 -2.77933,2.68512 -4.5223,7.11321 -1.69587,4.42809 -1.69587,10.74048 0,6.59503 1.83719,11.02312 1.88429,4.42809 4.71073,6.97189 2.87355,2.5909 6.4066,3.72148 3.53306,1.08347 6.97189,1.08347 3.29752,0 6.50082,-0.98926 3.25041,-0.98925 5.98263,-2.68512 2.30826,-1.36611 4.28677,-2.92065 1.97851,-1.55455 3.25041,-2.68512 l 1.88429,0 0,16.77022 q -2.63801,1.17768 -5.04048,2.21404 -2.40248,1.03636 -5.04049,1.79008 -3.43884,0.98926 -6.45371,1.50744 -3.01487,0.51818 -8.29089,0.51818 z"
         style="font-style:normal;font-variant:normal;font-weight:bold;font-stretch:normal;font-family:sans-serif;-inkscape-font-specification:'sans-serif Bold';fill:#e16049;fill-opacity:0.95686275"
         id="path9181"
         inkscape:connector-curvature="0" />
      <path
         d="m 615.7821,816.81458 -41.07762,0 0,-12.43635 11.4942,0 0,-45.27017 -11.4942,0 0,-12.43634 41.07762,0 0,12.43634 -11.4942,0 0,45.27017 11.4942,0 0,12.43635 z"
         style="font-style:normal;font-variant:normal;font-weight:bold;font-stretch:normal;font-family:sans-serif;-inkscape-font-specification:'sans-serif Bold';fill:#e16049;fill-opacity:0.95686275"
         id="path9183"
         inkscape:connector-curvature="0" />
      <path
         d="m 686.7729,794.76833 q 0,10.36362 -8.80908,16.86444 -8.76196,6.4537 -23.83632,6.4537 -8.71486,0 -15.21567,-1.50743 -6.45371,-1.55454 -12.1066,-3.90991 l 0,-16.81733 1.97851,0 q 5.60578,4.4752 12.53056,6.87768 6.97189,2.40247 13.37849,2.40247 1.64876,0 4.33388,-0.28264 2.68512,-0.28265 4.38098,-0.94215 2.07272,-0.84793 3.39173,-2.11983 1.36611,-1.2719 1.36611,-3.76859 0,-2.30826 -1.9785,-3.95702 -1.93141,-1.69586 -5.7,-2.5909 -3.95701,-0.94215 -8.3851,-1.74298 -4.38099,-0.84793 -8.24379,-2.11983 -8.85619,-2.87355 -12.7661,-7.77271 -3.8628,-4.94627 -3.8628,-12.24791 0,-9.79833 8.76197,-15.9694 8.80907,-6.21817 22.61153,-6.21817 6.92478,0 13.66113,1.36611 6.78346,1.31901 11.72974,3.34463 l 0,16.15782 -1.93141,0 q -4.23966,-3.39173 -10.41072,-5.65288 -6.12396,-2.30826 -12.53056,-2.30826 -2.26115,0 -4.5223,0.32975 -2.21405,0.28264 -4.28677,1.13058 -1.83719,0.70661 -3.1562,2.16693 -1.319,1.41322 -1.319,3.25041 0,2.77934 2.11983,4.28677 2.11983,1.46033 8.00825,2.68512 3.8628,0.80083 7.39585,1.55454 3.58016,0.75372 7.6785,2.07273 8.05536,2.63801 11.87106,7.20742 3.8628,4.52231 3.8628,11.77684 z"
         style="font-style:normal;font-variant:normal;font-weight:bold;font-stretch:normal;font-family:sans-serif;-inkscape-font-specification:'sans-serif Bold';fill:#e16049;fill-opacity:0.95686275"
         id="path9185"
         inkscape:connector-curvature="0" />
      <path
         d="m 755.17277,794.76833 q 0,10.36362 -8.80907,16.86444 -8.76197,6.4537 -23.83633,6.4537 -8.71486,0 -15.21567,-1.50743 -6.45371,-1.55454 -12.10659,-3.90991 l 0,-16.81733 1.97851,0 q 5.60577,4.4752 12.53055,6.87768 6.97189,2.40247 13.37849,2.40247 1.64876,0 4.33388,-0.28264 2.68512,-0.28265 4.38098,-0.94215 2.07273,-0.84793 3.39173,-2.11983 1.36612,-1.2719 1.36612,-3.76859 0,-2.30826 -1.97851,-3.95702 -1.9314,-1.69586 -5.69999,-2.5909 -3.95702,-0.94215 -8.38511,-1.74298 -4.38099,-0.84793 -8.24379,-2.11983 -8.85618,-2.87355 -12.76609,-7.77271 -3.86281,-4.94627 -3.86281,-12.24791 0,-9.79833 8.76197,-15.9694 8.80908,-6.21817 22.61153,-6.21817 6.92478,0 13.66114,1.36611 6.78346,1.31901 11.72973,3.34463 l 0,16.15782 -1.9314,0 q -4.23967,-3.39173 -10.41073,-5.65288 -6.12396,-2.30826 -12.53056,-2.30826 -2.26115,0 -4.5223,0.32975 -2.21405,0.28264 -4.28677,1.13058 -1.83719,0.70661 -3.1562,2.16693 -1.319,1.41322 -1.319,3.25041 0,2.77934 2.11983,4.28677 2.11983,1.46033 8.00825,2.68512 3.8628,0.80083 7.39586,1.55454 3.58015,0.75372 7.67849,2.07273 8.05536,2.63801 11.87106,7.20742 3.8628,4.52231 3.8628,11.77684 z"
         style="font-style:normal;font-variant:normal;font-weight:bold;font-stretch:normal;font-family:sans-serif;-inkscape-font-specification:'sans-serif Bold';fill:#e16049;fill-opacity:0.95686275"
         id="path9187"
         inkscape:connector-curvature="0" />
      <path
         d="m 835.63213,781.7667 q 0,16.77022 -9.6099,26.66277 -9.6099,9.84543 -26.56855,9.84543 -16.91154,0 -26.52145,-9.84543 -9.6099,-9.89255 -9.6099,-26.66277 0,-16.91154 9.6099,-26.70987 9.60991,-9.84544 26.52145,-9.84544 16.86443,0 26.52144,9.84544 9.65701,9.79833 9.65701,26.70987 z m -23.97765,17.75947 q 2.63801,-3.2033 3.90991,-7.53717 1.2719,-4.38099 1.2719,-10.26941 0,-6.31238 -1.46033,-10.74047 -1.46032,-4.4281 -3.81569,-7.16032 -2.40248,-2.82644 -5.55867,-4.09834 -3.10909,-1.2719 -6.50082,-1.2719 -3.43883,0 -6.50081,1.22479 -3.01487,1.22479 -5.55867,4.05123 -2.35537,2.63802 -3.8628,7.30164 -1.46033,4.61652 -1.46033,10.74048 0,6.26528 1.41322,10.69337 1.46033,4.38099 3.8157,7.16032 2.35536,2.77933 5.51156,4.09834 3.15619,1.31901 6.64213,1.31901 3.48595,0 6.64214,-1.31901 3.15619,-1.36611 5.51156,-4.19256 z"
         style="font-style:normal;font-variant:normal;font-weight:bold;font-stretch:normal;font-family:sans-serif;-inkscape-font-specification:'sans-serif Bold';fill:#e16049;fill-opacity:0.95686275"
         id="path9189"
         inkscape:connector-curvature="0" />
      <path
         d="m 888.91056,768.15267 q 0,-2.63801 -1.08347,-4.5223 -1.08347,-1.8843 -3.72148,-2.96776 -1.83719,-0.75372 -4.28677,-0.89504 -2.44958,-0.18843 -5.69999,-0.18843 l -6.54792,0 0,18.89005 5.55867,0 q 4.33387,0 7.25453,-0.42397 2.92065,-0.42397 4.89916,-1.9314 1.8843,-1.46033 2.73223,-3.2033 0.89504,-1.79008 0.89504,-4.75785 z m 28.21731,48.66191 -22.09335,0 -19.12559,-25.72062 -8.338,0 0,25.72062 -17.99501,0 0,-70.14286 30.33713,0 q 6.21818,0 10.69338,0.70661 4.47519,0.70661 8.3851,3.06198 3.95702,2.35537 6.26528,6.12395 2.35537,3.72149 2.35537,9.37437 0,7.77271 -3.62727,12.67188 -3.58015,4.89916 -10.2694,8.14957 l 23.41236,30.0545 z"
         style="font-style:normal;font-variant:normal;font-weight:bold;font-stretch:normal;font-family:sans-serif;-inkscape-font-specification:'sans-serif Bold';fill:#e16049;fill-opacity:0.95686275"
         id="path9191"
         inkscape:connector-curvature="0" />
      <path
         d="m 981.09965,794.76833 q 0,10.36362 -8.80907,16.86444 -8.76197,6.4537 -23.83633,6.4537 -8.71486,0 -15.21567,-1.50743 -6.45371,-1.55454 -12.10659,-3.90991 l 0,-16.81733 1.9785,0 q 5.60578,4.4752 12.53056,6.87768 6.97189,2.40247 13.37849,2.40247 1.64876,0 4.33388,-0.28264 2.68512,-0.28265 4.38098,-0.94215 2.07273,-0.84793 3.39173,-2.11983 1.36612,-1.2719 1.36612,-3.76859 0,-2.30826 -1.97851,-3.95702 -1.9314,-1.69586 -5.69999,-2.5909 -3.95702,-0.94215 -8.38511,-1.74298 -4.38099,-0.84793 -8.24379,-2.11983 -8.85618,-2.87355 -12.76609,-7.77271 -3.86281,-4.94627 -3.86281,-12.24791 0,-9.79833 8.76197,-15.9694 8.80908,-6.21817 22.61153,-6.21817 6.92478,0 13.66114,1.36611 6.78346,1.31901 11.72973,3.34463 l 0,16.15782 -1.9314,0 q -4.23967,-3.39173 -10.41073,-5.65288 -6.12396,-2.30826 -12.53056,-2.30826 -2.26115,0 -4.5223,0.32975 -2.21405,0.28264 -4.28677,1.13058 -1.83719,0.70661 -3.1562,2.16693 -1.319,1.41322 -1.319,3.25041 0,2.77934 2.11983,4.28677 2.11983,1.46033 8.00825,2.68512 3.8628,0.80083 7.39586,1.55454 3.58015,0.75372 7.67849,2.07273 8.05536,2.63801 11.87106,7.20742 3.8628,4.52231 3.8628,11.77684 z"
         style="font-style:normal;font-variant:normal;font-weight:bold;font-stretch:normal;font-family:sans-serif;-inkscape-font-specification:'sans-serif Bold';fill:#e16049;fill-opacity:0.95686275"
         id="path9193"
         inkscape:connector-curvature="0" />
    </g>
    <rect
       style="opacity:1;fill:#f7e6be;fill-opacity:1;fill-rule:evenodd;stroke:#e16049;stroke-width:20.60581017;stroke-linecap:round;stroke-linejoin:bevel;stroke-miterlimit:4;stroke-dasharray:none;stroke-opacity:0.95588235"
       id="rect9161"
       width="642.38324"
       height="146.21994"
       x="-962.20801"
       y="613.35583"
       ry="56.238438" />
    <g
       transform="matrix(1.1179902,0,0,0.89446223,93.75,-118.75)"
       style="font-style:normal;font-weight:normal;font-size:113.58812714px;line-height:125%;font-family:sans-serif;letter-spacing:0px;word-spacing:0px;fill:#e16049;fill-opacity:0.95686275;stroke:none;stroke-width:1px;stroke-linecap:butt;stroke-linejoin:miter;stroke-opacity:1"
       id="text9163">
      <path
         d="m -788.63912,883.44029 q 0,-3.10592 -1.27565,-5.32444 -1.27565,-2.21852 -4.38157,-3.49417 -2.16306,-0.88741 -5.04713,-1.0538 -2.88407,-0.22185 -6.71102,-0.22185 l -7.70935,0 0,22.24065 6.54463,0 q 5.10259,0 8.54129,-0.49917 3.43871,-0.49917 5.76815,-2.27398 2.21852,-1.71935 3.21685,-3.77148 1.0538,-2.10759 1.0538,-5.60176 z m 33.22231,57.29323 -26.01213,0 -22.51796,-30.28277 -9.81694,0 0,30.28277 -21.18685,0 0,-82.58434 35.71815,0 q 7.3211,0 12.59009,0.83195 5.26898,0.83194 9.8724,3.60509 4.65889,2.77315 7.37657,7.21018 2.77315,4.38158 2.77315,11.03713 0,9.15139 -4.27065,14.91954 -4.21518,5.76814 -12.09092,9.59509 l 27.56509,35.38536 z"
         style="font-style:normal;font-variant:normal;font-weight:bold;font-stretch:normal;font-family:sans-serif;-inkscape-font-specification:'sans-serif Bold';fill:#e16049;fill-opacity:0.95686275"
         id="path9170"
         inkscape:connector-curvature="0" />
      <path
         d="m -665.89961,899.46908 q 0,19.74481 -11.31444,31.39203 -11.31444,11.59176 -31.28111,11.59176 -19.9112,0 -31.22564,-11.59176 -11.31444,-11.64722 -11.31444,-31.39203 0,-19.9112 11.31444,-31.44749 11.31444,-11.59176 31.22564,-11.59176 19.85574,0 31.22565,11.59176 11.3699,11.53629 11.3699,31.44749 z m -28.23064,20.90954 q 3.10592,-3.77148 4.60342,-8.87408 1.4975,-5.15805 1.4975,-12.09092 0,-7.43203 -1.71935,-12.64555 -1.71935,-5.21352 -4.4925,-8.43037 -2.82861,-3.32778 -6.54463,-4.82528 -3.66055,-1.4975 -7.65388,-1.4975 -4.0488,0 -7.65389,1.44204 -3.54963,1.44204 -6.54463,4.76981 -2.77315,3.10593 -4.54796,8.59676 -1.71935,5.43537 -1.71935,12.64555 0,7.37658 1.66389,12.59009 1.71935,5.15806 4.4925,8.43037 2.77314,3.27232 6.48916,4.82528 3.71602,1.55296 7.82028,1.55296 4.10426,0 7.82027,-1.55296 3.71602,-1.60843 6.48917,-4.9362 z"
         style="font-style:normal;font-variant:normal;font-weight:bold;font-stretch:normal;font-family:sans-serif;-inkscape-font-specification:'sans-serif Bold';fill:#e16049;fill-opacity:0.95686275"
         id="path9172"
         inkscape:connector-curvature="0" />
      <path
         d="m -612.15601,942.34195 q -9.20685,0 -17.02713,-2.71769 -7.76481,-2.71768 -13.36657,-8.09759 -5.60176,-5.37991 -8.70768,-13.42203 -3.05046,-8.04213 -3.05046,-18.58009 0,-9.81695 2.93953,-17.80361 2.93954,-7.98667 8.5413,-13.69935 5.3799,-5.49083 13.31111,-8.48583 7.98666,-2.995 17.41536,-2.995 5.21352,0 9.37324,0.61009 4.21519,0.55463 7.76482,1.4975 3.71601,1.0538 6.71101,2.38491 3.05046,1.27565 5.32445,2.3849 l 0,20.02213 -2.44037,0 q -1.55297,-1.33111 -3.93787,-3.16139 -2.32945,-1.83028 -5.32445,-3.60509 -3.05046,-1.77481 -6.60009,-2.995 -3.54963,-1.22018 -7.59842,-1.22018 -4.4925,0 -8.5413,1.44203 -4.04879,1.38658 -7.4875,4.65889 -3.27231,3.16139 -5.32444,8.37491 -1.99667,5.21351 -1.99667,12.64555 0,7.76481 2.16306,12.97833 2.21852,5.21352 5.54629,8.20852 3.38324,3.05046 7.54297,4.38157 4.15972,1.27565 8.20851,1.27565 3.88241,0 7.65389,-1.16472 3.82694,-1.16473 7.0438,-3.16139 2.71768,-1.60843 5.04712,-3.4387 2.32945,-1.83028 3.82695,-3.16139 l 2.21852,0 0,19.74481 q -3.10593,1.38657 -5.93454,2.60676 -2.82861,1.22018 -5.93454,2.10759 -4.04879,1.16472 -7.59842,1.77481 -3.54963,0.6101 -9.76148,0.6101 z"
         style="font-style:normal;font-variant:normal;font-weight:bold;font-stretch:normal;font-family:sans-serif;-inkscape-font-specification:'sans-serif Bold';fill:#e16049;fill-opacity:0.95686275"
         id="path9174"
         inkscape:connector-curvature="0" />
      <path
         d="m -490.08204,940.73352 -26.12305,0 -24.68101,-33.05592 -4.99167,6.04546 0,27.01046 -21.29777,0 0,-82.58434 21.29777,0 0,37.38203 29.50629,-37.38203 24.68102,0 -32.27944,38.21398 33.88786,44.37036 z"
         style="font-style:normal;font-variant:normal;font-weight:bold;font-stretch:normal;font-family:sans-serif;-inkscape-font-specification:'sans-serif Bold';fill:#e16049;fill-opacity:0.95686275"
         id="path9176"
         inkscape:connector-curvature="0" />
    </g>
  </g>
</svg>
